# xmcd
#
# Track frame offsets: 
#        150
#        13781
#        32805
#        45333
#        57076
#        73904
#        86896
#        98658
#        108639
#        113773
#        122545
#        136482
#
# Disc length: 1969 seconds
#
# Revision: 0
# Processed by: cddbd v1.5.2PL0 Copyright (c) Steve Scherf et al.
# Submitted via: ExactAudioCopy v0.99pb5
#
DISCID=a107af0c
DTITLE=Cristina Rus - Cele mai frumoase Colinde...
DYEAR=2010
DGENRE=Carols
TTITLE0=Deschide usa crestine
TTITLE1=O ce veste minunata
TTITLE2=Aseara pe-nserate
TTITLE3=Trei pastori se intalnira
TTITLE4=Noapte de vis
TTITLE5=Sus la Poarta Raiului
TTITLE6=Steaua sus rasare
TTITLE7=Sculati gazde (Flori dalbe)
TTITLE8=Ne dati ori nu ne dati (Buna dimineata la Mos Ajun)
TTITLE9=Am plecat sa colindam
TTITLE10=Mos Craciun
TTITLE11=La nunta-n Cana Galilei
EXTD=
EXTT0=
EXTT1=
EXTT2=
EXTT3=
EXTT4=
EXTT5=
EXTT6=
EXTT7=
EXTT8=
EXTT9=
EXTT10=
EXTT11=
PLAYORDER=
